<svg width="512" height="512" viewBox="0 0 512 512" fill="none" xmlns="http://www.w3.org/2000/svg">
<g clip-path="url(#clip0_750_355)">
<mask id="mask0_750_355" style="mask-type:luminance" maskUnits="userSpaceOnUse" x="0" y="0" width="512" height="512">
<path d="M512 0H0V512H512V0Z" fill="white"/>
</mask>
<g mask="url(#mask0_750_355)">
<path d="M275.978 398.231L503.821 170.385C509.094 165.115 512 158.08 512 150.579C512 143.078 509.094 136.044 503.821 130.774L487.045 113.994C476.114 103.076 458.349 103.076 447.434 113.994L256.106 305.322L64.5656 113.782C59.2916 108.512 52.261 105.603 44.7643 105.603C37.2591 105.603 30.2286 108.512 24.9504 113.782L8.17946 130.561C2.90547 135.835 3.27885e-07 142.866 0 150.367C-3.27872e-07 157.868 2.90547 164.902 8.17946 170.172L236.23 398.231C241.521 403.514 248.585 406.414 256.093 406.397C263.633 406.414 270.692 403.514 275.978 398.231Z" fill="#002035"/>
</g>
</g>
<defs>
<clipPath id="clip0_750_355">
<rect width="512" height="512" fill="white"/>
</clipPath>
</defs>
</svg>
